<svg height="168.95pt" viewBox="0 0 80.329 59.601" width="227.7pt" xmlns="http://www.w3.org/2000/svg"><g transform="translate(23.483 3.0791)"><g stroke-linecap="round" stroke-linejoin="round"><path d="m152.38 4.4453v39.721h-33.434l-12.807 7.0625 12.807 7.0625h33.434v6.8008h-33.434l-12.807 7.0625 12.807 7.0605h33.434v6.8027h-33.434l-12.807 7.0625 12.807 7.0605h33.434v6.8008h-33.434l-12.807 7.0644 12.807 7.0606h33.434v6.8008h-33.434l-12.807 7.0625 12.807 7.0625h33.434v5.0156h25.168l14.045 8.8477-14.045 8.8476h-25.168v22.42h12.539l-10.779 10.779-4.0625 14.051 14.049-4.0625 20.768-20.768h30.809l20.768 20.768 14.049 4.0625-4.0606-14.051-10.779-10.779h10.174v-6.1699h-9.3613l-13.918-15.1 13.918-15.104h9.3613v-1.8594h-9.3613l-13.918-15.1 13.918-15.102h9.3613v-1.8594h-9.3613l-13.918-15.1 13.918-15.102h9.3613v-1.8594h-9.3613l-13.918-15.1 13.918-15.104h9.3613v-1.8594h-9.3613l-13.918-15.1 13.918-15.102h9.3613v-18.061z" fill="#fac8fa" stroke="#4b3c4b" stroke-width=".66667" transform="matrix(.26458 0 0 .26458 -24.13 -3.7261)"/><path d="m-49.945-9.6367v68.225h30.748l13.92 15.102-13.92 15.1h-30.748v2.2695h30.748l13.92 15.102-13.92 15.1h-30.748v51.781h93.473v-24.205h40.279l12.807-7.0625-12.807-7.0625h-40.279v-5.0156h-18.32l-14.047-8.8476 14.047-8.8477h18.32v-3.2285h-18.32l-14.047-8.8477 14.047-8.8496h18.32v-3.2285h-18.32l-14.047-8.8477 14.047-8.8496h18.32v-3.2285h-18.32l-14.047-8.8477 14.047-8.8496h18.32v-3.2285h-18.32l-14.047-8.8477 14.047-8.8496h18.32v-37.934z" fill="#c8fafa" stroke="#3c4b4b" stroke-width=".66667" transform="scale(.26458)"/><path d="m39.045 36.741-3.3882 3.4154 3.3882 3.4149h17.272v-6.8302z" fill="#fafac8" stroke="#4b4b3c" stroke-width=".17639"/></g><text font-family="Arial" font-size="2.8222" stroke-width=".26458" text-anchor="middle" x="47.410408" xml:space="preserve" y="39.457733"><tspan x="47.410408" y="39.457733">objective</tspan><tspan x="47.410408" y="42.279953">function(s) <tspan font-family="Times New Roman" text-anchor="middle">f</tspan></tspan></text><path d="m39.045 28.258-3.3882 3.4154 3.3882 3.4149h17.272v-6.8302z" style="fill:#fafac8;stroke:#4b4b3c;stroke-dasharray:.529167 .529167;stroke-linecap:round;stroke-linejoin:round;stroke-width:.17639"/><g stroke-width=".26458"><g font-size="2.8222"><g font-family="Arial"><text fill="#464646" font-family="Arial" font-size="2.8222" stroke-width=".26458" text-anchor="middle" x="47.63916" y="31.255312"><tspan x="47.63916" y="31.255312">termination</tspan><tspan x="47.63916" y="34.077534">criterion</tspan></text><text x="9.199362" xml:space="preserve" y="10.750118"><tspan font-size="2.8222" stroke-width=".26458" x="9.199362" y="10.750118"><tspan font-family="Consolas">create</tspan> <tspan font-family="Times New Roman">x<tspan font-family="Symbol">∈</tspan>X</tspan></tspan></text><text x="9.199362" xml:space="preserve" y="16.012419"><tspan font-size="2.8222" stroke-width=".26458" x="9.199362" y="16.012419"><tspan font-family="Consolas">copy</tspan> <tspan font-family="Times New Roman">x<tspan font-family="Symbol">∈</tspan>X</tspan></tspan></text></g><text font-family="sans-serif" x="9.206253" xml:space="preserve" y="21.862459"><tspan font-size="2.8222" stroke-width=".26458" x="9.206253" y="21.862459"><tspan font-family="Consolas">evaluate</tspan><tspan font-family="Times New Roman"> x<tspan font-family="symbol">∈</tspan>X</tspan></tspan></text><text font-family="Arial" x="9.222789" y="27.137161"><tspan font-family="Consolas" font-size="2.8222" stroke-width=".26458" x="9.222789" y="27.137161">should_terminate</tspan></text></g><text font-family="Arial" font-size="7.0556" x="7.994957" y="32.260281"><tspan font-family="Times New Roman" font-size="7.0556" stroke-width=".26458" x="7.994957" y="32.260281">...</tspan></text><text font-family="Consolas" font-size="2.8222" x="-4.594172" y="38.195065"><tspan font-family="Consolas" font-size="2.8222" stroke-width=".26458" x="-4.594172" y="38.195065">log_parameters_to</tspan></text><g font-family="Arial" font-size="3.5278" font-weight="bold" text-anchor="middle"><text x="28.33515" y="2.126491"><tspan font-family="Arial" font-size="3.5278" font-weight="bold" stroke-width=".26458" text-anchor="middle" x="28.33515" y="2.126491">Process</tspan></text><text x="-.84482" y="1.846061"><tspan font-family="Arial" font-size="3.5278" font-weight="bold" stroke-width=".26458" text-anchor="middle" x="-.84482" y="1.846061">Algorithm</tspan></text></g></g><path d="m39.045 19.775-3.3882 3.4154 3.3882 3.4149h17.272v-6.8302z" fill="#fafac8" stroke="#4b4b3c" stroke-linecap="round" stroke-linejoin="round" stroke-width=".17639"/><text font-family="Arial" font-size="2.8222" stroke-width=".26458" text-anchor="middle" x="47.544079" xml:space="preserve" y="22.508562"><tspan x="47.544079" y="22.508562">solution</tspan><tspan x="47.544079" y="25.330782">space <tspan font-family="Times New Roman" text-anchor="middle">Y</tspan></tspan></text><path d="m-5.6823 16.082 3.3882 3.4154-3.3882 3.4149h-17.272v-6.8302z" style="fill:#fafac8;stroke:#4b4b3c;stroke-dasharray:.529167 .529167;stroke-linecap:round;stroke-linejoin:round;stroke-width:.17639"/><text fill="#464646" font-family="Arial" font-size="2.8222" stroke-width=".26458" text-anchor="middle" x="-13.985172" y="18.815178"><tspan x="-13.985172" y="18.815178">search</tspan><tspan x="-13.985172" y="21.637398">operators</tspan></text><path d="m-5.6823 24.673 3.3882 3.4154-3.3882 3.4149h-17.272v-6.8302z" style="fill:#fafac8;stroke:#4b4b3c;stroke-dasharray:.529167 .529167;stroke-linecap:round;stroke-linejoin:round;stroke-width:.17639"/><text fill="#464646" font-family="Arial" font-size="2.8222" stroke-width=".26458" text-anchor="middle" x="-14.241643" y="27.670258"><tspan x="-14.241643" y="27.670258">other</tspan><tspan x="-14.241643" y="30.492477">modules</tspan></text><path d="m39.045 2.8092-3.3882 3.4154 3.3882 3.4149h17.272v-6.8302z" style="fill:#fafac8;stroke:#4b4b3c;stroke-dasharray:.529167 .529167;stroke-linecap:round;stroke-linejoin:round;stroke-width:.17639"/><text fill="#464646" font-family="Arial" font-size="2.8222" stroke-width=".26458" text-anchor="middle" x="47.539944" xml:space="preserve" y="5.542849"><tspan x="47.539944" y="5.542849">search</tspan><tspan x="47.539944" y="8.365069">space <tspan fill="#464646" font-family="Times New Roman" text-anchor="middle">X</tspan></tspan></text><path d="m39.045 11.292-3.3882 3.4154 3.3882 3.4149h17.272v-6.8302z" style="fill:#fafac8;stroke:#4b4b3c;stroke-dasharray:.529167 .529167;stroke-linecap:round;stroke-linejoin:round;stroke-width:.17639"/><g font-family="Arial" font-size="2.8222" stroke-width=".26458"><text fill="#464646" font-family="Arial" stroke-width=".26458" text-anchor="middle" x="47.609535" y="14.001588"><tspan x="47.609535" y="14.001588">encoding<tspan fill="#464646"/></tspan><tspan x="47.609535" y="16.823809"><tspan fill="#464646" font-family="Times New Roman" text-anchor="middle">g:X<tspan fill="#464646" font-family="Symbol" text-anchor="middle">↦</tspan>Y</tspan></tspan></text><text x="9.503572" y="55.574848"><tspan stroke-width=".26458" x="9.503572" y="55.574848">final results</tspan></text><text fill="#4b4b4b" x="31.495937" y="55.574848"><tspan fill="#4b4b4b" stroke-width=".26458" x="31.495937" y="55.574848">optional: log file</tspan></text></g><text transform="matrix(.26458 0 0 .26458 -23.483 -3.0791)"/></g></svg>