<svg height="203.79pt" viewBox="0 0 81.372 71.891" width="230.66pt" xmlns="http://www.w3.org/2000/svg"><g stroke-linecap="round" stroke-linejoin="round" stroke-width=".17639"><path d="m2.398.44002v9.3386h46.813l2.5627 2.542 2.5622-2.542h17.496v50.203h9.0988v-59.542h-9.0988z" fill="#c8c8fa" stroke="#3c3c4b"/><path d="m39.582 12.821v10.509h-8.846l-3.3885 1.8686 3.3885 1.8686h8.846v1.7994h-8.846l-3.3885 1.8686 3.3885 1.8681h8.846v1.7999h-8.846l-3.3885 1.8686 3.3885 1.8681h8.846v1.7994h-8.846l-3.3885 1.8691 3.3885 1.8681h8.846v1.7994h-8.846l-3.3885 1.8686 3.3885 1.8686h8.846v1.327h6.659l3.716 2.3409-3.716 2.3409h-6.659v5.9319h3.3176l-2.8519 2.8519-1.0749 3.7176 3.7171-1.0749 5.4948-5.4948h8.1514l5.4948 5.4948 3.7171 1.0749-1.0744-3.7176-2.8519-2.8519h2.6918v-1.6324h-2.4768l-3.6824-3.9952 3.6824-3.9962h2.4768v-.49196h-2.4768l-3.6824-3.9952 3.6824-3.9957h2.4768v-.49196h-2.4768l-3.6824-3.9952 3.6824-3.9957h2.4768v-.49196h-2.4768l-3.6824-3.9952 3.6824-3.9962h2.4768v-.49196h-2.4768l-3.6824-3.9952 3.6824-3.9957h2.4768v-4.7786z" fill="#fac8fa" stroke="#4b3c4b"/><path d="m22.436 10.277-2.5658 2.5446h-9.69v18.051h8.1356l3.683 3.9957-3.683 3.9952h-8.1356v.60049h8.1356l3.683 3.9957-3.683 3.9952h-8.1356v13.7h24.731v-6.4039h10.657l3.3885-1.8687-3.3885-1.8687h-10.657v-1.3271h-4.8468l-3.7166-2.341 3.7166-2.341h4.8468v-.85422h-4.8468l-3.7166-2.3405 3.7166-2.3415h4.8468v-.85423h-4.8468l-3.7166-2.341 3.7166-2.3415h4.8468v-.85423h-4.8468l-3.7166-2.341 3.7166-2.3415h4.8468v-.85423h-4.8468l-3.7166-2.341 3.7166-2.341h4.8468v-10.037h-9.9102z" fill="#e1fae1" stroke="#444b44"/><path d="m62.44 52.112-3.3882 3.4154 3.3882 3.4149h17.272v-6.8302z" fill="#fafac8" stroke="#4b4b3c"/></g><text font-family="Arial" font-size="2.8222" stroke-width=".26458" text-anchor="middle" x="70.805687" xml:space="preserve" y="54.828991"><tspan x="70.805687" y="54.828991">objective</tspan><tspan x="70.805687" y="57.651211">function(s) <tspan font-family="'Times New Roman'" text-anchor="middle">f</tspan></tspan></text><path d="m62.44 43.629-3.3882 3.4154 3.3882 3.4149h17.272v-6.8302z" style="fill:#fafac8;stroke:#4b4b3c;stroke-dasharray:.529167 .529167;stroke-linecap:round;stroke-linejoin:round;stroke-width:.17639"/><g stroke-width=".26458"><g font-size="2.8222"><g font-family="Arial"><text fill="#464646" text-anchor="middle" x="71.034439" y="46.626568"><tspan x="71.034439" y="46.626568">termination</tspan><tspan x="71.034439" y="49.448792">criterion</tspan></text><text x="32.594643" xml:space="preserve" y="26.121376"><tspan font-size="2.8222" stroke-width=".26458" x="32.594643" y="26.121376"><tspan font-family="Consolas">create</tspan> <tspan font-family="'Times New Roman'">x<tspan font-family="Symbol">∈</tspan>X</tspan></tspan></text><text x="32.594643" xml:space="preserve" y="31.383677"><tspan font-size="2.8222" stroke-width=".26458" x="32.594643" y="31.383677"><tspan font-family="Consolas">copy</tspan> <tspan font-family="'Times New Roman'">x<tspan font-family="Symbol">∈</tspan>X</tspan></tspan></text></g><text font-family="sans-serif" x="32.601536" xml:space="preserve" y="37.233715"><tspan font-size="2.8222" stroke-width=".26458" x="32.601536" y="37.233715"><tspan font-family="Consolas">evaluate</tspan><tspan font-family="'Times New Roman'"> x<tspan font-family="symbol">∈</tspan>X</tspan></tspan></text><text font-family="Arial" x="32.618069" y="42.508419"><tspan font-family="Consolas" font-size="2.8222" stroke-width=".26458" x="32.618069" y="42.508419">should_terminate</tspan></text><text font-family="Consolas" x="18.801107" y="53.566322"><tspan font-family="Consolas" font-size="2.8222" stroke-width=".26458" x="18.801107" y="53.566322">log_parameters_to</tspan></text></g><g font-family="Arial" font-size="3.5278" font-weight="bold" text-anchor="middle"><text x="51.730431" y="17.497749"><tspan font-family="Arial" font-size="3.5278" font-weight="bold" stroke-width=".26458" text-anchor="middle" x="51.730431" y="17.497749">Process</tspan></text><text x="22.550459" y="17.217319"><tspan font-family="Arial" font-size="3.5278" font-weight="bold" stroke-width=".26458" text-anchor="middle" x="22.550459" y="17.217319">Algorithm</tspan></text></g></g><path d="m62.44 35.146-3.3882 3.4154 3.3882 3.4149h17.272v-6.8302z" fill="#fafac8" stroke="#4b4b3c" stroke-linecap="round" stroke-linejoin="round" stroke-width=".17639"/><text font-family="Arial" font-size="2.8222" stroke-width=".26458" text-anchor="middle" x="70.939354" xml:space="preserve" y="37.879818"><tspan x="70.939354" y="37.879818">solution</tspan><tspan x="70.939354" y="40.702038">space <tspan font-family="'Times New Roman'" text-anchor="middle">Y</tspan></tspan></text><path d="m17.713 31.453 3.3882 3.4154-3.3882 3.4149h-17.272v-6.8302z" style="fill:#fafac8;stroke:#4b4b3c;stroke-dasharray:.529167 .529167;stroke-linecap:round;stroke-linejoin:round;stroke-width:.17639"/><text fill="#464646" font-family="Arial" font-size="2.8222" stroke-width=".26458" text-anchor="middle" x="9.410107" y="34.186436"><tspan x="9.410107" y="34.186436">search</tspan><tspan x="9.410107" y="37.008656">operators</tspan></text><path d="m17.713 40.044 3.3882 3.4154-3.3882 3.4149h-17.272v-6.8302z" style="fill:#fafac8;stroke:#4b4b3c;stroke-dasharray:.529167 .529167;stroke-linecap:round;stroke-linejoin:round;stroke-width:.17639"/><text fill="#464646" font-family="Arial" font-size="2.8222" stroke-width=".26458" text-anchor="middle" x="9.153636" y="43.041515"><tspan x="9.153636" y="43.041515">other</tspan><tspan x="9.153636" y="45.863735">modules</tspan></text><path d="m62.44 18.18-3.3882 3.4154 3.3882 3.4149h17.272v-6.8302z" style="fill:#fafac8;stroke:#4b4b3c;stroke-dasharray:.529167 .529167;stroke-linecap:round;stroke-linejoin:round;stroke-width:.17639"/><text fill="#464646" font-family="Arial" font-size="2.8222" stroke-width=".26458" text-anchor="middle" x="70.935219" xml:space="preserve" y="20.914106"><tspan x="70.935219" y="20.914106">search</tspan><tspan x="70.935219" y="23.736326">space <tspan fill="#464646" font-family="'Times New Roman'" text-anchor="middle">X</tspan></tspan></text><path d="m62.44 26.663-3.3882 3.4154 3.3882 3.4149h17.272v-6.8302z" style="fill:#fafac8;stroke:#4b4b3c;stroke-dasharray:.529167 .529167;stroke-linecap:round;stroke-linejoin:round;stroke-width:.17639"/><g stroke-width=".26458"><g font-family="Arial" font-size="2.8222"><text fill="#464646" text-anchor="middle" x="71.004814" y="29.372847"><tspan x="71.004814" y="29.372847">encoding<tspan fill="#464646"/></tspan><tspan x="71.004814" y="32.195065"><tspan fill="#464646" font-family="'Times New Roman'" text-anchor="middle">g:X<tspan fill="#464646" font-family="Symbol" text-anchor="middle">↦</tspan>Y</tspan></tspan></text><text x="32.898853" y="70.946106"><tspan stroke-width=".26458" x="32.898853" y="70.946106">final results</tspan></text><text fill="#4b4b4b" x="54.89122" y="70.946106"><tspan fill="#4b4b4b" stroke-width=".26458" x="54.89122" y="70.946106">optional: log file</tspan></text></g><text x="-.087721" y="12.292158"/><g font-family="Arial"><text font-size="2.8222" x="32.739334" y="48.029099"><tspan font-family="Consolas" font-size="2.8222" stroke-width=".26458" x="32.739334" y="48.029099">get_random</tspan></text><text font-family="Arial" font-size="2.8223" x="8.100182" y="3.870145"><tspan x="8.100182" y="3.870145"><tspan font-size="3.5278" font-weight="bold"><tspan font-family="Arial" font-size="3.5278" font-weight="bold" stroke-width=".26458" x="8.100182" y="3.870145">Execution <tspan font-family="Arial" font-size="2.8223" font-weight="normal">is a builder object creating a Process</tspan></tspan></tspan></tspan><tspan x="8.100182" y="8.279895">and applying an instance of Algorithm to it.</tspan></text></g></g></svg>